<?xml version="1.0" encoding="UTF-8" standalone="no"?>
<!DOCTYPE svg PUBLIC "-//W3C//DTD SVG 1.1//EN" "http://www.w3.org/Graphics/SVG/1.1/DTD/svg11.dtd">
<svg width="100%" height="100%" viewBox="0 0 1400 1400" version="1.1" xmlns="http://www.w3.org/2000/svg" xmlns:xlink="http://www.w3.org/1999/xlink" xml:space="preserve" xmlns:serif="http://www.serif.com/" style="fill-rule:evenodd;clip-rule:evenodd;stroke-linejoin:round;stroke-miterlimit:2;" fill="currentColor" role="img" aria-labelledby="title-for-minipub-logo"><title id="title-for-minipub-logo">Minipub logo</title>
    <path d="M694.897,100.915C1025.97,100.915 1294.76,369.703 1294.76,700.775C1294.76,1031.85 1025.97,1300.63 694.897,1300.63C363.826,1300.63 95.037,1031.85 95.037,700.775C95.037,369.703 363.826,100.915 694.897,100.915ZM937.27,901.693L832.411,901.693L832.411,498.307L999.33,498.307C1044.63,498.307 1079.31,510.077 1103.39,533.617C1127.46,557.156 1139.5,590.326 1139.5,633.126C1139.5,675.925 1127.46,709.095 1103.39,732.635C1079.31,756.174 1044.63,767.944 999.33,767.944L937.27,767.944L937.27,901.693ZM260.501,901.693L328.981,498.307L432.77,498.307L513.554,713.375L593.803,498.307L697.593,498.307L766.072,901.693L661.748,901.693L626.973,669.505L531.744,901.693L490.014,901.693L399.6,669.505L364.826,901.693L260.501,901.693ZM937.27,683.415L972.045,683.415C1010.57,683.415 1029.83,666.652 1029.83,633.126C1029.83,599.599 1010.57,582.836 972.045,582.836L937.27,582.836L937.27,683.415Z"/>
</svg>
